<mxfile host="Electron" agent="Mozilla/5.0 (Windows NT 10.0; Win64; x64) AppleWebKit/537.36 (KHTML, like Gecko) draw.io/28.2.5 Chrome/138.0.7204.251 Electron/37.6.1 Safari/537.36" version="28.2.5">
  <diagram name="ページ1" id="PBOK2gzlr-Mh-a5ST-_D">
    <mxGraphModel dx="1042" dy="643" grid="1" gridSize="10" guides="1" tooltips="1" connect="1" arrows="1" fold="1" page="1" pageScale="1" pageWidth="827" pageHeight="1169" math="0" shadow="0">
      <root>
        <mxCell id="0" />
        <mxCell id="1" parent="0" />
        <mxCell id="4p_x6lrZU8iYyVv5xeIe-9" value="" style="rounded=0;whiteSpace=wrap;html=1;fillColor=#f5f5f5;fontColor=#333333;strokeColor=#666666;" parent="1" vertex="1">
          <mxGeometry x="286" y="187" width="240" height="110" as="geometry" />
        </mxCell>
        <mxCell id="4p_x6lrZU8iYyVv5xeIe-10" value="" style="ellipse;whiteSpace=wrap;html=1;aspect=fixed;fillColor=#fff2cc;strokeColor=#d6b656;" parent="1" vertex="1">
          <mxGeometry x="296" y="207" width="80" height="80" as="geometry" />
        </mxCell>
        <mxCell id="4p_x6lrZU8iYyVv5xeIe-14" value="" style="ellipse;whiteSpace=wrap;html=1;fillColor=#d5e8d4;strokeColor=#82b366;" parent="1" vertex="1">
          <mxGeometry x="316" y="247" width="40" height="20" as="geometry" />
        </mxCell>
        <mxCell id="4p_x6lrZU8iYyVv5xeIe-1" value="AならばBである&lt;div&gt;&lt;br&gt;&lt;div&gt;A⇨B&lt;/div&gt;&lt;div&gt;&lt;br&gt;&lt;/div&gt;&lt;/div&gt;" style="text;html=1;align=center;verticalAlign=middle;whiteSpace=wrap;rounded=0;" parent="1" vertex="1">
          <mxGeometry x="270" y="143" width="120" height="30" as="geometry" />
        </mxCell>
        <mxCell id="4p_x6lrZU8iYyVv5xeIe-2" value="BでないならAでない&lt;div&gt;&lt;br&gt;&lt;div&gt;⇨ Ā&lt;/div&gt;&lt;/div&gt;" style="text;html=1;align=center;verticalAlign=middle;resizable=0;points=[];autosize=1;strokeColor=none;fillColor=none;" parent="1" vertex="1">
          <mxGeometry x="416" y="120" width="140" height="60" as="geometry" />
        </mxCell>
        <mxCell id="4p_x6lrZU8iYyVv5xeIe-6" value="" style="group" parent="1" vertex="1" connectable="0">
          <mxGeometry x="460" y="155" width="16" height="20" as="geometry" />
        </mxCell>
        <mxCell id="4p_x6lrZU8iYyVv5xeIe-3" value="B" style="text;html=1;align=center;verticalAlign=middle;whiteSpace=wrap;rounded=0;" parent="4p_x6lrZU8iYyVv5xeIe-6" vertex="1">
          <mxGeometry width="16" height="20" as="geometry" />
        </mxCell>
        <mxCell id="4p_x6lrZU8iYyVv5xeIe-4" value="" style="endArrow=none;html=1;rounded=0;" parent="4p_x6lrZU8iYyVv5xeIe-6" edge="1">
          <mxGeometry width="50" height="50" relative="1" as="geometry">
            <mxPoint x="3.2" y="1.8" as="sourcePoint" />
            <mxPoint x="11.200000000000001" y="1.8" as="targetPoint" />
          </mxGeometry>
        </mxCell>
        <mxCell id="4p_x6lrZU8iYyVv5xeIe-11" value="B" style="text;html=1;align=center;verticalAlign=middle;whiteSpace=wrap;rounded=0;fillColor=#f5f5f5;fontColor=#333333;strokeColor=#666666;" parent="1" vertex="1">
          <mxGeometry x="326" y="197" width="20" height="20" as="geometry" />
        </mxCell>
        <mxCell id="4p_x6lrZU8iYyVv5xeIe-17" style="edgeStyle=orthogonalEdgeStyle;rounded=0;orthogonalLoop=1;jettySize=auto;html=1;exitX=0.5;exitY=0;exitDx=0;exitDy=0;entryX=0.5;entryY=1;entryDx=0;entryDy=0;" parent="1" source="4p_x6lrZU8iYyVv5xeIe-12" target="4p_x6lrZU8iYyVv5xeIe-11" edge="1">
          <mxGeometry relative="1" as="geometry" />
        </mxCell>
        <mxCell id="4p_x6lrZU8iYyVv5xeIe-12" value="A" style="text;html=1;align=center;verticalAlign=middle;whiteSpace=wrap;rounded=0;fillColor=#f5f5f5;fontColor=#333333;strokeColor=#666666;" parent="1" vertex="1">
          <mxGeometry x="326" y="237" width="20" height="20" as="geometry" />
        </mxCell>
        <mxCell id="4p_x6lrZU8iYyVv5xeIe-19" value="" style="group" parent="1" vertex="1" connectable="0">
          <mxGeometry x="458" y="198" width="16" height="20" as="geometry" />
        </mxCell>
        <mxCell id="4p_x6lrZU8iYyVv5xeIe-20" value="B" style="text;html=1;align=center;verticalAlign=middle;whiteSpace=wrap;rounded=0;fillColor=#f5f5f5;fontColor=#333333;strokeColor=#666666;" parent="4p_x6lrZU8iYyVv5xeIe-19" vertex="1">
          <mxGeometry width="16" height="20" as="geometry" />
        </mxCell>
        <mxCell id="4p_x6lrZU8iYyVv5xeIe-21" value="" style="endArrow=none;html=1;rounded=0;" parent="4p_x6lrZU8iYyVv5xeIe-19" edge="1">
          <mxGeometry width="50" height="50" relative="1" as="geometry">
            <mxPoint x="3.2" y="1.8" as="sourcePoint" />
            <mxPoint x="11.200000000000001" y="1.8" as="targetPoint" />
          </mxGeometry>
        </mxCell>
        <mxCell id="4p_x6lrZU8iYyVv5xeIe-25" value="" style="endArrow=classic;html=1;rounded=0;" parent="1" edge="1">
          <mxGeometry width="50" height="50" relative="1" as="geometry">
            <mxPoint x="460" y="207" as="sourcePoint" />
            <mxPoint x="430" y="237" as="targetPoint" />
          </mxGeometry>
        </mxCell>
        <mxCell id="4p_x6lrZU8iYyVv5xeIe-26" value="Ā" style="text;html=1;align=center;verticalAlign=middle;whiteSpace=wrap;rounded=0;fillColor=#f5f5f5;fontColor=#333333;strokeColor=#666666;" parent="1" vertex="1">
          <mxGeometry x="416" y="240" width="20" height="20" as="geometry" />
        </mxCell>
        <mxCell id="4p_x6lrZU8iYyVv5xeIe-29" value="" style="endArrow=classic;html=1;rounded=0;" parent="1" edge="1">
          <mxGeometry width="50" height="50" relative="1" as="geometry">
            <mxPoint x="385" y="137" as="sourcePoint" />
            <mxPoint x="425" y="137" as="targetPoint" />
          </mxGeometry>
        </mxCell>
        <mxCell id="4p_x6lrZU8iYyVv5xeIe-30" value="対偶" style="text;html=1;align=center;verticalAlign=middle;whiteSpace=wrap;rounded=0;fontStyle=1" parent="1" vertex="1">
          <mxGeometry x="376" y="100" width="60" height="30" as="geometry" />
        </mxCell>
        <mxCell id="4p_x6lrZU8iYyVv5xeIe-32" value="命題(仮定→結論)&lt;div&gt;&lt;br&gt;&lt;div&gt;&lt;span style=&quot;text-wrap-mode: nowrap;&quot;&gt;Ā(否定)&lt;/span&gt;&lt;/div&gt;&lt;/div&gt;" style="text;html=1;align=center;verticalAlign=middle;whiteSpace=wrap;rounded=0;fillColor=#f5f5f5;strokeColor=#666666;fontColor=#333333;" parent="1" vertex="1">
          <mxGeometry x="586" y="120" width="110" height="67" as="geometry" />
        </mxCell>
        <mxCell id="4p_x6lrZU8iYyVv5xeIe-33" value="" style="endArrow=none;dashed=1;html=1;dashPattern=1 3;strokeWidth=2;rounded=0;" parent="1" target="4p_x6lrZU8iYyVv5xeIe-32" edge="1">
          <mxGeometry width="50" height="50" relative="1" as="geometry">
            <mxPoint x="556" y="140" as="sourcePoint" />
            <mxPoint x="606" y="90" as="targetPoint" />
          </mxGeometry>
        </mxCell>
        <mxCell id="1VpIsCuH5CSyKdc4dj-e-1" value="&lt;div&gt;&lt;br&gt;&lt;/div&gt;A∩B&amp;nbsp; : AかつB　(AもBも同時に真)&lt;div&gt;A∪B : AまたはB&lt;/div&gt;&lt;div&gt;&lt;br&gt;&lt;/div&gt;" style="text;html=1;align=left;verticalAlign=middle;resizable=0;points=[];autosize=1;strokeColor=none;fillColor=none;" parent="1" vertex="1">
          <mxGeometry x="286" y="320" width="210" height="70" as="geometry" />
        </mxCell>
        <mxCell id="1VpIsCuH5CSyKdc4dj-e-2" value="情報を論理的に体系化する" style="text;html=1;align=center;verticalAlign=middle;whiteSpace=wrap;rounded=0;fontStyle=1;fontSize=13;" parent="1" vertex="1">
          <mxGeometry x="250" y="60" width="200" height="30" as="geometry" />
        </mxCell>
        <mxCell id="Gtq2VnG0J2nG_n-y0sFA-5" value="" style="shape=image;verticalLabelPosition=bottom;labelBackgroundColor=default;verticalAlign=top;aspect=fixed;imageAspect=0;image=data:image/png,iVBORw0KGgoAAAANSUhEUgAAA7cAAAFNCAYAAADb8phVAAAAAXNSR0IArs4c6QAAAARnQU1BAACxjwv8YQUAAAAJcEhZcwAADsMAAA7DAcdvqGQAADBDSURBVHhe7d0PcFXnfTf4n3eYqWa8Rs6bF5Q2EPqmYDmJseIG4WRfQNuGyOsJkKQGO1uzNIGGtAU52wBtEpYmNeFNY3A2RnYbsGlsRfuOg0hTg7cMsttYuBPX4HWQ3SaWmXituE6Rp+4ijz2Wx8zcPefeIyGJKyHgCunYn8/MA+eec3R1/zw693zv8+dcUkgEAAAA5Nj/kP0PAAAAuSXcAgAAkHvCLQAAALkn3AIAAJB7wi0AAAC5J9wCAACQe8ItAAAAuSfcvp2d6o32TfWxeFd3toKK6uuI9fOWRsuz2W0AAGDcXNRw23V7fUydOjWmzlweLS9mK8egr7cnenrKl97Xsp0qoPPP62Nmw/LY2toVvdm6M/xoc8x535yYM29NtJ3DczhTe6xJX4up02PO6raRf994OdUVLTdcFWuebYq71szKVo6u44tzYmYS1tbfsT+6LvAB9/V0RsstC2PmzSM9987YOm9mLLxpa7Q8dQ6/7NntsXDmwli+rSU6X87WldUbbauT97H4Xm6Ojr5s9aiyn5mevG9r27N1o6hqiG3fqo3tH54bGw9f9HcYAADeVi5quK2aki30Vse73p0tj8HhTUmgmFO+LL6nOQuJYy1rklhZTnccPpiE2p+0R/M/dGXrztT9VHv0vJgE67gyrj6H53CmWXHlFen/fXF53fyoLq67SIrBdnGsP/kn8fAPVkVt//symsc2xsp7eqL32Y5o+e7hOJGtPl89+9bH+ns7o/fAuvjiwTOTZd/BndH8bG90HtwezQ+N/bf1/OhQdPZ2Rvs3N8fdT46WWKujekryPqbv5ZR3xa9XZatHVR3z6y6PnvRuf/R4Er/PrnrRjvjH/2t+fH/Jkth6VMAFAIDxUsFw2x3NHy4XJk+XuVv6Q2NbLC+zfUj5cHNyjxfRT1ti90/ThZpoaloWj68t85iSMvAcnt0a9WW2rzlY2lx0cM0Z20+X+tiadVft2jK3zPbTZch9VsCRLyfB9snG2Le/aWzB9uX9sebG3VkLa11s+5sd0TAsjaet671jav0smfX522Nt8T76om1HS/QU1/brjrv/vC3ZknjPprjnC7XFtWfXEw/sPVJarN8SWz42psR6TmoWNUaxnbtnb+y8Z3/sv785Nt+yPpY3zIk5M5P36kBxtyGqr98TD2+N2P7RNdEm3wIAwLjIxZjbxt2vxCuvJOXYtijFnBWxL72dlKMDwac2th0beb/T68rruCcL0+9ZFTdeU1z11vTYxrhhV8Sqv74rGsfSXNzbHms+uHJQKOuMzR88M4BPnzknZs5J9ivXVftUX/QO71L+8qz439bXRVy9Ku786nVJWDy9reuu9bG5+EVD8g5+bW286+VBP5eVskH6p7uj+Whpcdkfroqa0uJ56omWJWWeZ0P/ly7d0fbFlbFy7eZovrcl2n+SPK7kNXrqufJfydR+oTW2XZO8ljcPD/IAAEAlXFJIZMvjrvuO+qzlMw2de6KxtHrsnmuO+g9ujq4hP5+OXV0ebcVwezSa3jvCfmV/NvNiSyx93/roSBYbdh6PA58ZKRYdiY3TF8fuJFit+P4rsef6bPV5SVu65xZDXO3Wp5OQPrZxrxcm+53/+c44/uAYwt+LbbHyw2ti/zm0Ntb86aNxfHMSWgcbeO0r58zXvy/abp5eajmtWhsHfrkjrk1bk0+VtpZz+E/mxJofJgtXbIqH/++1pRbZKdVR885Si2/72qmx/P7i4giqou76G6Oupjpq/6drY9Y7Z0Xd/NqYVT1Ci/FjG2PmdS3R+P1fJI+98q3KAADwdjY+4fa1I9H85ZYzwszJJ/fG/qfSJrdZ0fCZhlKYGOzdy2LLnzaOHLpGDbdJ1Kipieq0m+2p3ugpDoyMqH53TRJBBq87M9we2TQzFu9KE9yKaP2PPbFspK66r7XF8l9Nx+zWxpYnjsam4pjZ8zUB4fbwxpi+pCVWPfhS7FiUrRtB70MbY8ENu7NWyoi6rx6NhzbUll7LQbruWBj1W0qjT2uTfY4m+5zhYoTbn2yNuQ3bi4+3ZkMSsL96+cDre07evy2e/qemUt18Lakzr2ZNxFVJ6O0PrQNfhsyKTf/0dGx5f2n12fXE7o/OiY2xI47//doLbFkGAAAGG59we2p/rPlPK4uB85wMDhblnCXcjs2wcDsoFA1se6ol1t9zJKp/oyFuXL4i6n65NepXtUTVe94VXY91Rl8SS+avvC6uTENwT2cceupE8tg3xcM/yFr/BkvH3d50zq/EgAtvIT6t44vTY+k9S2NfEuAbRwrwfd2x/4tLYmVrf6ytjobtD0bryrqovjRblem6d2ksvqWjNBb3mm1x9O/HOIa34rqjuSEJsj8p3Sp9WRAXHm7LyQJv57Z5sfze5Jkv2hStn0xq4VPPR/ePD8czv6iKVYeSwDtC1/ZS74Xq2PGzh2PtBU1IBgAADDY+Y26n9Lfv1cSK7a3Ret/oZcfys7RhpYEiHWv58slsxRvZGM7e6BvodnoeY25PHYmNy/qD7SAvdkTLvS3RvOW2aE8vNfTvz0fXiz3RWQy2qZ440tpS3KflYGdpxt0X3yhumbw64/CB5NFf/7/EohECaM/B9VH/a3NPB9vqhtj2gz0xf+/CmPmrc2PjQ6f7J/fsW3k62L53bRwYw+RUabAbPoZ1SBnx8jrdsfuGObHwpvWx/pvtZ4xZ7bpj5UCwPW1WNP1T9t6PUPZ9Ots1DbT964cE27Qb+rDH+Kszi7N0F4Nt6vD2WPnF7UldaIuOZ5N60NcdnT/PWnvLmDW/IaqS+21/bOR9AACAczfOE0r1RNumlbHy90YvG/eNPsVO9z2LS5f++ej2rGvr/lhTvBTQ4rj7F8UV56E32v/ohth9Oq+VcXXUpmN4f+PKM8NyVp7eOto0VYnr9wzZ/3R5OrZl3VnTlsby+1Su1TZeezY6k5e56j2zzuha3K/mY02xam7/8o44evxANM06EUeKszqnAfOqWHpvZ3Tekbwfq/eXgm118pp0nDl78gXpv5bw+1ZGW7Fq1MQ7pvRE58GWaPl5euu03oNrYnHWLbryamLW+7LF0dTMj1WfWRWbvtUarT94NO4abTzte6+Oa5P/Ov+lkp20AQCAcQ63g1pTRylnDYjj5MTLpWRbd83Iv794bd6Blugj0XzL+lg/qGxuO6PdN3H2yyJNnXq6y+zZLgVULBd6aaSeE8WfnzVjlFbyKbXR9N8PROuhF+L4D9ZGbfq0r1gVB/75QKxNQ34SZztuWRgLt2SX26lZFfv+ec/YZl0e7NP7hrz/Ay2o/areiN5ia/ivRHXx4VZFdfY7aj8w6L3qa48v3txWCtkxK2aVeWq9jzXH8jlzYs3BUb/FGMGs+Nz+43H8eH95IV76j0F1t783QM8bUfu/3xlbfn9ZLPtYXdQM6749RM27YnryX9raDwAAVM44h9uTceyh/bH/h6OXQ5393Y3Lm/WFo0PDxEALajY7clHX6UvUDExeNOh6umdMaFQdN/6vjVGdBK0Hv3R1tu5suqMj7Yo8qJQmyHoLeXdDLPvIsLRa3RBf/+6wcaj1m+LhJ+4892A7ioHgWpME1dLS6Koa4082pHtWx4rv74m17yytPq07Wr60Odp7eqLtppXRUu4yRWdRlaTrmpr+Ul36sqPfe5virs+nL0BnbL7FJX4AAGAi5aJb8nip+mRrHP/LJOBmt89urN2SRx7vefyvlw10q61euieOJreL0svXDG4V/Ld90fTpbfHwC9nt0SY5Gk/pBFO31A+6vmvy7D6/L144tCXml3nh+nqHj4UuY9+arNtxqazZl60/D7WfWhUrvvFw7Lm+XIt08j58d1uULkzUEeu/2N/KWznzv7YnVqWvw+H1sfwOXY0BAGCijHO4rdCEUiPqi77XGmNPfyDsL+UmlBoog2ZKnlI1tCXurMbaLbmMl5OfvSEJc6v3F1v40mD7xH0rovaTn4u1afffvt2x8a7svk51RfOy5dF8/+ZYfNXSaHmutPqC1LyrGI67/3WMXyS81hXt25bHnOlzY+W9Q0Nb967lMfM/ZS3iw8r0melY6Jmx7qFs53LSyzIVux2XymjXoj2r92+KPevKfcGQeW9T3Fls3U0cXBdfPHjuLe29T7XE1psWJs9r+tDnmzzXhasfj6v/j1XF+ta5ZfHZuz/3nIiXkv9q3n2+dR4AAChnfMJtdgI/fi23b8Tzh3fHmnnTY+E9FzQS9RydR7fkJCTu//LimPNfFsfmh04/z8aVK6KmOJ63IZo2l8JZ15aV0fxUZzRfVx+bj6ZrqmPZN3bEje8pbr4wl14RdUme6vvZM6N2n+17tj2a1y6M6b9aH8vLzExcEWcbc1thdRtvjxXFYdN90fYXdw+0QJ9dOunYnJi5YH1sT2fF7ukrXks5DaZpqX4tneRqe2zc1H9N596kvu8c1v19mF92xzPJf3WDxw4DAAAXbHzCbc2qODAovIy5nKXrbd+r/WNz98fGJRuj7dmIqildZ07eVG7M7UBZEyNdcObsxtgt+VRvdP6wOdYvmRNTk5C48q4jpZCYBKNyXaBnrbsr1hY3dMbmBQuzYFsXm/7+n6N1Ze05ti6PpC4WLU0S3uGO6CzbUtoTLZ+YGtPnLY/N9/df8iii9tM7oulj2Y3Bl8wpV8pdbqmcCnZLHpNLG+PP0i8QrmiKfX9zDt27D2+Nla3pO1cdDVsPxPGXXomX0omlflYqL6TdyP/teDx637ZYcXWanqtj7d1bRn0Nug+nLffzo/EjxbQNAABUSOXC7XPNUX9GkLyQUh/Nxe643dH25eWxcM70mL6g/1JAiSm1sWL7w/Hg5y9CC9jPuwbC8ppBoSwti7eVaaeb8ivR89Bt0XI4a/esqotVf/lovPCzu053iR5syvzYsXftoOBbF1ueeDS21JeLwuev4ZOroioORPuPsxVD1MSqlv4u21VR95k749H/95U4unttNJwxUdMFGqlb8qksUnefiJPF1tF3xa+U1lywWeuOxitPbIvGc3gunT96oBTy3/8ncecXGqKmXB69tCbqPtUUe/7xpXjpZ0/Elo9k68vqiUP7k/pSf2N84t3ZKgAAoCLGecxtZZz4cXt09mTBp2Z+NKVB8aWjsefz86N6SpnJm8Y65nasTr2eLUR2iZpBpWyv5Kpo3L4n1i5aEdt+cDRe+uWjcefKuuSxZpvLuWZLPPjV0tRHaQvu1g8vjq2PVXj6o0VNseX9fbH7thFm9q1eEXuOHY3jL70Uj+5cFXWVDrX9RuiW3NWVdRj+rW1Z6+i2aCitGTDmMcPDnUfrd9X/eHlp4blj0TmGt6Iq7aqcLZf12PbYerQqVmxcNeRavQAAwIWrXLh9b1McHRRYiuXfjsa+P20snsjP/9OHS904+7cl4XTHbyVRIAuraZfPIT87cJmfWdHYWBs1H2mKOzuOx0vHH45tZwuKlXb9nmGPrUxJu1T39UZvf9i9tDF2PLgnmj5WvlvxG73d0flQWzRnrdJTpy+JwysejaM7G0oB6dSR2H7dzJhz3eZo+UnPQDfhCzMrmv7PtVF9eHNsfaj8PVa/N3mtJ3GP2b7e0S8bVUm11y8rdWHua4uV/6U+ln+5Odp+2BFdPT3RM7j8ojPaf9R1lveoO5q/tDt6F+2I/3a9LskAAFBplxQS2fIF6ovent440fV4dDz6QBxoOxAdzw063b9iRezZuydWZNel7fvJ9lhy3dY4MrBLVcxatDRu/OQn4toP1UXdr10e1el1RbOtZ0i7QZ9x7dqxqo1txwZdI/fgmph6U1uykLb07onGgdvnrnbr03H0C6dHdfY91xHtR56Kx3/clbw+j0fLwREe8ZRVceA/7iy2VPY+tDkW39QcXYPHxlaviNZ/3hPLKtBT+cimmbH4/sbYl9zfWK5T2752aiy/P7sxRiu+/0rsuT67kem+oz7mbkmef9pyu7sx+l7ujbj0V+LA56fHmh8mO2TrS0r1qVQ9TkTLJxbG1p8mi0P2Gaw91kxdHum7Nvw9GNDXHR0HO7PLAXXH3ls2x/70RjqWeITx3j37VsaCbIbrUY1yH6muOxZG/ZbL486fHYhVuiQDAEDFVa7l9lR3tNw4J+qXrIyN32wbCLZVV6+KO//xhXjlidPBNlV1zaZ4+JcvxMPbV0RdMcH2Rffhttj+xZWxvGFuLP7O8yMH2xyp6j0cG9ZujuZ0duXBwbaqJmoXrYhN39oXj/7zC/FSFmxT1R/bFkd/+XS0fqZ/PHFVrPjLb1Uk2Kbmf+PhuPM322P5smEB+mLJxtY+vm1OTJ+eBdvE0MvjVMWxb86NOXPmJCULtom6ugsYY5285i/d3z9LdxZsU7/xrhG7Cdcsb43jLz0dB761KVYsqk0e47m/Cb0H18TiLSdj7YOtgi0AAIyXtOW2Yp68tXDVO2YU5n18deHWux8pPPNqtv6sXi+cePKBws6mJYV5s6cVLrvs5sLeMf9sBfzd6uR3XpaU1YVD6e32dUNvX5DHCxtmTCssuHFd4Svf3ls49OTzhZPn8NxeP3GscN/3HimczG5XzJvPFO5bNqMwY9l9hWfezNaN4NDn0tciKYt2Fp7P1pXVvatww5WzC7OT8pV/yNYN8vy355Xu59rsfgZe98sKMz50c+G+nxd3O23Q9uI+i75SeGTEF+JQYXW237xvj/woT3x3yen7nDY7qau3jnKfF+5kx4bkb+KqwoaOcfwlAABAoYLdksmdU73R/uXFcdvsffHw50fqUMt56+uI9Qt2xNUtbbH2/cbZAgDAeBJuAQAAyL1cXAoIAAAARiPcAgAAkHvCLQAAALkn3AIAAJB7wi0AAAC5J9wCAACQe8ItAAAAuSfcAgAAkHvCLQAAALkn3AIAAJB7wi0AAAC5J9wCAACQe8ItAAAAuSfcAgAAkHvCLQAAALkn3AIAAJB7wi0AAAC5J9wCAACQe8ItAAAAuSfcAgAAkHvCLQAAALkn3AIAAJB7wi0AvF283BkdP+3NbvTrjfYtS2PO9KXR8mK2KtGza2lMn7Mwlt91JPqydTAe2v9oakydOjWWtg6vmzAODq4p1repa9tHPrY91xz1yT7T37c5OrJVQzy7PRbOrI+l3zwSXT/ZH/t/eJbyoy7H0YvkkkIiWwbgIui+Z3ksvr0zuzUGn7wnjn+jIbsB56m3LZbPXBPtURfbnng0mq7I1id6di2OOZuORNXvH4iXvpXWta7YelV9bP/FrNjU8XRsuaa0H5y3Fztj/5Hu7MZQJw5siI37emL+F1rjlt/MVg4za/6yqHt3dgMuRBpub2qL2q8ejaMbarOVw6Th9oObo+v92+Lpf2qKWdnqfv3HzPnbj8ef/D9zYvn92YaRjHA/jIM03FbeicKu376scNllSZl9a+FYthYm3qHC6rReDi8zFhRWf+fxwsk3s91gHD3/7Xln1sHRyucOZT85Nie+89HsZ2cXbn0yWzkOyj+PaYWrPv6VwgM/fz3bi8nk5PduKL1PMzYUHh98vHvzkcKGaZcVpv3X20qf2R0bCtOS/aYldW8s7+Shzw2vB0l5x4zCgs/tKjz+79lO4yV7rOnvvKFNvZu0/m71mXXkHMrqv8vup9Ima/35+c7CvEHPv79Mq1tS+MrfPD+mv0tOe/7uGwqzr5xXWPLZdYV1y64qvZb/9ebCuhsXJOtnF264+/lsz0z/63/tzsKwLYlnCrd+IH0/bi7sfbVQOPa12cnyvMLOn6fbni/svHbwz2Xnnef4OX52+TqfvVjnJanx6Zb83N64+2i23NMc33ssW4ZJoyrqPrUqVn1mRTRcUR3R2xltmxbHVbeM0kUFKmTWF47GK6+8MvayuzH7ybHojr3fPZIt90Tzf+9fHkfvaUj+lpK/p+vroqaqL7oPN8fKD34smp/LtjNpVK/cE/s+nR7zdse6OzrjyF3rY/0tSfliW/x/n1wRN/5md9x9y5pYfPPu4rFw1mv7Y2O6PSnbH+op3ckoqq5eVqwLKxbVRnX0Ruf9G2PxB9dH+2vZDuOgvbX0WIvL9+5Naj2T0vV7yh/fxlj2XJ/dT4VN/vozKxrS4+tnGqOupir6nuuI5t+bGx+7q3wrOCN4rTt6XuyKjn0t0fKj0mvX99T+aDnYmazvie5zOEb17dsa23+RHO9+/3Ox4tKIyy+/PFl7Mo49lHZBPhTHXk5uvnwsDhW7JHckn8rjKQ/nsxf5vCQLuRX1zNdL34h8tLGU0qf98SPZFpho/d909X/DVnJy/+rsm9vVyR6QY/9ya+GqtC4nx9+Ppv9P21B4ZJy+wR1ouR38jfSbzxRuS7+1TtbP+/aZ33czCZzcW/jKlw4VTr75fGHnotJ7NZYy2vvZ33I7ZJ+TDxRWTyutH7dWt1f3Fm5OH9/spL7PTn/XRwu7/jXbxuR0ji2441Z3UpO5/gy03A49L3lmR3bcLduiyNi9Xth7Y/r6Lijs7E5udu8q3HDl7GIrbrHMnlZ6nS+bVrr9pSzLvPl4YcOMdP3pujmm3ljj1nKbg/PZi3hekhqHltvO2Htv+h1FY3z+r1ZFOnKnr/VAdJwqboRJqbr2ytI4iKp3RPr9G+RVZ1tL8Vvixs/tiVWLkoW+ljjw4+Km89b7bGf0jPUr4Cm1Ufv+0uK7qqtKC0wu1Sti2zcao3rKrGjqOB6P/uDRePr4C/FSsYVsX6xI90nHh6W3f/Zo7Ot4Oo6/8FIc/cI5jharro0r35MuVMU7zvPAera613fw+7E/+b9m5e3x3z6Z1rcjsfdBbbeMzbjUn96u6Hxx/NrMaq+4urTwn6uTvyzOX0+cKDapXhG16XHq1BvR/WJPsRW3WAYOPH2l2y+/Ubx15Ms3xO6y857VxrZj6TH06diWfgb2H0P7j6kXyYWfz/ZE11OVndhtPM5LRlP5cPvY96I5PS5cf1Msfe91saL4JHZHy0PFrTDp9PV2xu5NO6MrWZ6/tSnml1ZD5f1oc8x535zzLpt/lN3PiI7E9+5KD8CNcdP1s+K65cWvF2N3a3tx6/mqvqIu+h5sjrbnznLCdio5CTi4MTbvS5ZrVkXTiprSeiaFji8PrU/L70lPN05G+5cXxtwFpWPgGd44HJsb5sbcrz+VrRijvt7o3LUxdj6bLNd/PZo+Ulp9rkavez2x9960btfEqmV1Mf93VhVP9o98d+84dwOkElZ8v9TdOC1Pb00n9ekPB4PXjadxqj/VtVH3xoFo3tdd8W6hfS+2x8YtbclS8pi/cGPyL+ekryv2/7B/1uKu6Ppp8t8VWRh8b1MczepesRzbltTIRH9I3d0YfQ+tjxt2nRn8urrSo+dZuiX39o57N+HKnM/WRO2sY7H7niPRW5GGyfE5LxlV1oJbMY/8cakZv39Q/onvLik1x//uXoPfmQRGGIB/2YLCho4T2T4wTsZ7QpX+iVFuzI63J+4rLCn+bGnSiwEjTFRy9jK7cMO3Hy+czO5mpK5YM35nV+HY4N/HpDB80qdSF+Jhk5907ywsSLf3d6HL6srZupiXnVAqKQs2PlI4Mbj7WYXqXtG/7ip1cRuYuPLx4qRYl112VeHWfymuYDKaLN2Sx1x/sr+RYY9rLGX27+wsPD6k0p6Dkf5Wfv2Gwq5OZ9Tn7vWB49SCHc8UXu//fPzsA9nm5wsPfGld4b6u0s2B139w9+/iZ+yCwurPlj77+uvmSMe/IaXi3cjHfj47psdXrnxoXeGBC+2mP9bzkgqqbLjNZlu87LIbTj/ggScxaB1MmP6DwbTCglXrCuuaVheWfGh2Nj7hssJVyYnY+X4OwbnrP2kaNGam/8TvPMbnDP9yMTkAF+77eKluX/AsoE9mY2aSD7tD2YfdQLj9wJLkbyn5e0pnnczGIl02Y8npkwQmlyGBNauD0xYUbk7fw1ULSsfD/vc0uz37a6Nf96D/5Kk4+2jyc6s/Pq8wOxtve1ndhsIjF3JgLVP3Uv2zbw5+bI9vLP0NnO3xMkHefL1w8sSJwolh5fGvpceSeYVbj5y57cSJk4XXzzY+bwxfmgwPyeNaf948VppN9x3zCuv+7nTQOGvIGByABp7TVYUl6d9i0w2FBVfOyPadUVjy3WeyHRmzN58ZmGdgwW8vKP4/8MVd/3HmA7cWjqX1rVy4LRwrPNJxcuCzL61TJ9pvKx0rB8rNhQXpsa//mDq4/MWh5FN5ZOdUP8b1fPZkNh55duGGO48NNE6efWzxmeN8x/W8ZAQVDbevt91cenL96byof8D2ZckfopYxJlr5AfjpN7ilL2GmFTZ0ZOtg3PWH22xCi9T5htv+iVGGfZH4elt26ZeP3zfqh+ro0g+j2YUlw1rOBj7ohjzWk8mHWWlSwct+e9cF/E7GTblwW6w7o5Sz1Mf+k7IhLbxvnijsyk5izn9iyfJ17/SlOIZdViI5QZ2dPt5pGwqPZ6uYRMYQQs8swz6vy3n1mcIjf/NA4YFy5Turi3ViaLgd3/qT9lqcvezMVtsTT5Z5fFn5SmPye8uG26GB4WTHhlIIM3na+Xn9mcJtAxPpDX3/j32t9NlVPI6VDbclg8Pt2QPfoFLmvgY7p/oxnuezP95QmF13Zqvt612PlH1sadn12fRySMPC7biel4ysguE2CbG/mz6BUYoTHSbcCAeDxAOfLdXTeTt8G8pF8uYDpfo4+ETqPMPtwJeLI5bzPxF6vX1nYeeRM78DLh9uE123DZyUPTCOMyJynoaE20EGZrpOTop+nK0bo7LhNrU/q88fui2JE+dupLo3MPvmiMUXlZPNaCfupRPj2YXV3ym/vViePM8zyKy+Dwm341l/Xj1U2HnGlzFnV/wbGkO4TYP5bR8qPc7V+7NVnJsff6Uwo/jazkjqxaB3KnnvSjO831zY++S5hdvT9Sv7wjD5uWfSL12K9TY79zxLuB3NGfVj3M5nny/c9/W9Q4eTjEHpdRhaV8fzvGQ0lZtQ6rUD8f0DpcXqd9dEzZBSXdpwdG888GJpESark6+O95B/KOn7272RTg0Sn2w8y8QP3XHkcM8ok1H0xYG2dM7PRPXw429NVE9JN5z/LKBVH2uKpvrsOH5OeuON0gSTTHaneqLt9xbH1nSClWu2nPcEUCPq7TuvyVRGqnv9s29G1Zn1vaY4hWxftPxtR7rAJNH5Vytj5e+VLxv3pcempA5uKr+9WP6qs3RHFTCu9efSxmj6wvw4nyPmuep9w/nKueuO5i81J59Oqd5ou2lNtPXPEZW8d3/2l5tix6G7YsWFvoGnTkZ368ZYet32CbtizPmdz86KVZtXRE3xvOFCjO95yWgqFm57kgNFcd6rRXfGEz87HseHldLFt4/E3fvMYcgk9GxzbE9neI2q+MRv1RVXwbh6eX+s++P0wF8daz/bWFo3kp6O2LpkTkz/oxFmF+zZGy0H04WGuPOJM4+/x3eX7v/izCLbG+07spl36xtj0aXFlUwavXHke3uL70/3v2SzhvZ1xvb/eU6sOZCc4VUndejuptLsoRfqVFc07yh+fRNVSxdF5Y6s/bNvVsXaB8rU90ObirPI9t2TnJe4DOGk0bj79Ey0Lz2xL7Z9ui55B1M10fT3r8QL319RDITVn94XL6T7/ezOaExOihu3Ply6nR3HLly+60/vwdtKs5DH/Gj8SOkVZOy67lgZm3+SLFyzLfZ9Iz0qtceaZc0Dn42zlm+JtR85j2T7i5ZYXpyJPvuS8NntsXxTR1KR0ivGXMQvISbL+ewEnpdUKNz2xAPfK33D1bD8ujJTk1fF0hWlJ9F1d0vppAcmVHfs/fP1sf6W9bG8IQkN8zZH+p1w9adbY0t6+SoYN33R/cP1UT9nZfHb4uqVe+LrZ2sl63oqHk/+q6kpf+GHnr9tieIReNGKuK7MLlXX3xTFI/BPkw/Z9EO30n7cXPxbWr96adTPnBnL70+/Bq+LbX+1tsznAROlr6cjmj9xVSy+PTnaTUlu378mVuzqjL4pdbHpr7fF/KubYt+xA7HqiuwHhjvVF31nOdnvbttcqgs3LYw5v1ZfOomsXhGtX00v/1Ahh5OTpvRcsWpV3Fjub+eaZbGqWPHaouVvtWxNDslx72BzbE7rxfSpyWfu8tj86OVxdfE6yJfHu96ZVJPrvxWtn58Vvfcvj6s+mhxL5q6P9qprY9nSqy+sFbSmMXbc1xq3ZJeHnaz1p+4PW6P1G41ljplHojn9m7plTSydNzNm3tRWbHWs23pXrH13aQ/Goi8Jtoujfkty/EuOSfv2N0XjutbYdk267WScfK240/l7z5Xx68kxMqbXxY3rtsWe+w7E0eNHY9tvVcWzz1548hm5fkyO89ma63dE6323DHyJOaHnJVn35AszMC5gSeG+kYZEvLq3cENxH1P0M5H6xygMLdNmLyis+94z5zxGBs7FyX/4SmkWxazeffTrZcZlDbpMxowrZxdmD8yOOWzM2IDTEwKNPGnf6Yn9rvp65caUl51I4x0zCvN+99bCIyY6mXT6Z628bNGthcf//fSsoen4wtnFula+zHhHtt8o82aUneVz2uzCgqb7Cs9U+MDa/7umbRx5yp9jX0vHcCb7uQzh5NGxoTBjWjrz787Coa7Su1J6L0tjbXd9fV3hhkULCjf/4ZJsPGRyDPztrxR2dSSfzRW82kZu6s/AufXQMuNDNxdu/YfzHH/8Nnbs69l7mk7gOHgm/399fsj40mN/saB07Ouf+X/RuY65HerE391aWPfZj5bq9AWMuT3TZD6fnbjzktQl6T9ZzgVgXHVHc0N97JzRFHdt3RSN7y3TpexUV7T83srYfLDr9AXUp9REw4Z7onVzw0UZx8Vb1E+3xuIvz4q7frAqatPxTqd648iezbH17kNx7LmekS/Yn45LfGfErN9/MB7eUJuthPPTc+/yWPDNzujrGV7nqqLmmlVx194dsei1/bH1DzdE82ODxuN9bE+88INS12U4Z73tsebDt8UHf/BgNL1/lO7cj22M6dftLg3ZqK6NVbsfjjuvH1rruu+oj7lbumLF91+JP3v29HJpCOYwP9kacxq2R8+U6mjY+nAcWOcYOt6EWwAALo7nmmPhh3fH5Usa4uq6hrj2/VdE3W/Wxqx3nhk4+nq74vG2vdH8vf1R+xdHY1ulJzoD3nKEWwAAAHKvcpcCAgAAgAki3AIAAJB7wi0AAAC5J9wCAACQe8ItAAAAuSfcAgAAkHvCLQAAALkn3AIAAJB7wi0AAAC5J9wCAACQe5cUEtnyBXn22WezJQAAALi4KhZuAQAAYKLolgwAAEDuCbcAAADknnALAABA7gm3AAAA5J5wCwAAQO4JtwAAAOSecAsAAEDuCbcAAADknnALAABA7gm3AAAA5J5wCwAAQO4JtwAAAOSecAsAAEDuCbcAAADknnALAABA7gm3AAAA5J5wCwAAQO4JtwAAAOSecAsAAEDuCbcAAADknnALAABA7lUm3D7XHPVTp8bU0cra9mxnmCDqKRNJ/WMiqX9MJPWPiaT+va1cUkhky+fvVF/0vtwbfdnN7u8sicW318ae47fHomxdVFVHTXVVdgMmgHrKRFL/mEjqHxNJ/WMiqX9vK5VpuZ1SFdU1NVHTXy5PV/7K0HUqDBNNPWUiqX9MJPWPiaT+MZHUv7cVY24BAADIPeEWAACA3BNuAQAAyD3hFgAAgNwTbgEAAMg94RYAAIDcE24BAADIPeEWAACA3BNuAQAAyD3hFgAAgNy7pJDIlgEAACCXtNwCAACQe8ItAAAAuSfcAgAAkHvCLQAAALkn3AIAAJB7wi0AAAC5J9wCAACQe8ItAAAAuSfcAgAAkHvCLQAAALkn3AIAAJB7wi0AAAC5J9wCAACQe8ItAAAAuSfcAgAAkHvCLQAAALkn3AIAAJB7wi0AAAC5J9wCAACQe5cUEtnyBXn11VezJQAAALi4KhZuAQAAYKLolgwAAEDuCbcAAADknnALAABA7gm3AAAA5J5wCwAAQO4JtwAAAOSecAsAAEDuCbcAAADknnALAABA7gm3AAAA5J5wCwAAQO4JtwAAAOSecAsAAEDuCbcAAADknnALAABA7gm3AAAA5J5wCwAAQO4JtwAAAOSecAsAAEDuCbcAAADknnALAABA7lUm3D7XHPVTp8bU0cra9mxnmEjd0fzhMvUzKfV3dGf7wHhR/5ggPqeZSOofE87n79vFJYVEtnz+TvVF78u90Zfd7P7Oklh8e23sOX57LMrWRVV11FRXZTdgoqQHt7mxubopWv/g2mxdSfUHGqPhCnWU8aT+MUF8TjOR1D8mnM/ft4vKhNthuu+oj7lbro59r+yJxmwdTA7Zwe3qffHKbrWTi039Y3LwOc1EUv+4+Hz+vl0YcwsAAEDuCbcAAADknnALAABA7gm3vD3dv3zYbHn10fxctg3Gm/oHABefz9+3POGWt6ePNEXrfa2Dyo5orMm2wXhT/wDg4vP5+5Yn3PL2NKshln1q2aDSELWXZttgvKl/AHDx+fx9yxNuAQAAyD3hFgAAgNwTbgEAAMg94RYAAIDcu6SQyJYBAAAgl7TcAgAAkHvCLQAAALkn3AIAAJB7wi0AAAC5J9wCAACQe8ItAAAAuSfcAgAAkHvCLQAAALkn3AIAAJB7wi0AAAC5J9wCAACQe8ItAAAAuSfcAgAAkHvCLQAAALkn3AIAAJB7wi0AAAC5J9wCAACQe8ItAAAAuSfcAgAAkHuXFBLZ8gV59dVXsyUAAAC4uCoWbgEAAGCi6JYMAABA7gm3AAAA5J5wCwAAQO4JtwAAAOSecAsAAEDuCbcAAADknnALAABA7gm3AAAA5J5wCwAAQO4JtwAAAOSecAsAAEDuCbcAAADknnALAABA7gm3AAAA5J5wCwAAQO4JtwAAAOSecAsAAEDuCbcAAADknnALAABA7gm3AAAA5J5wCwAAQO5VMNx2R/OHp8bUqWeW+ju6s31gAj3XHPVl6ueQsrY92xkqTP1jwvmcZiKpf0wQn79vK5cUEtnyBUoPWnNjc3VTtP7Btdm6kuoPNEbDFVXZLZggp/qi9+Xe6Mtudn9nSSy+vTb2HL89FmXroqo6aqrVVcaB+seE8znNRFL/mCA+f99WKh9ur94Xr+xuzNbB5NV9R33M3XJ17HtlT6ixXGzqHxefz2kmkvrH5ODz963NmFsAAAByT7gFAAAg94RbAAAAcq/y4fb+5cNmIKuP5ueybQDAxPI5zURS/4BxVPlw+5GmaL2vdVDZEY012TYAYGL5nGYiqX/AOKp8uJ3VEMs+tWxQaYjaS7NtAMDE8jnNRFL/gHFkzC0AAAC5J9wCAACQe8ItAAAAuSfcAgAAkHuXFBLZMgAAAOSSllsAAAByT7gFAAAg94RbAAAAck+4BQAAIPeEWwAAAHJPuAUAACD3hFsAAAByT7gFAAAg94RbAAAAck+4BQAAIPeEWwAAAHJPuAUAACD3hFsAAAByT7gFAAAg94RbAAAAck+4BQAAIPeEWwAAAHJPuAUAACD3hFsAAABy75JCIlu+IK+++mq2BAAAABdXxcItAAAATBTdkgEAAMg94RYAAIDcE24BAADIPeEWAACA3BNuAQAAyD3hFgAAgNwTbgEAAMg94RYAAIDcE24BAADIPeEWAACA3BNuAQAAyD3hFgAAgNwTbgEAAMg94RYAAIDcE24BAADIPeEWAACA3BNuAQAAyD3hFgAAgNwTbgEAAMg94RYAAIDcE24BAADIvQqG2+5o/vDUmDr1zFJ/R3e2D0w09ZQJ8lxz1Jepd0PK2vZsZ6gw9Y+JpP4xkdS/t5VLCols+QKloWFubK5uitY/uDZbV1L9gcZouKIquwUTST1lgpzqi96Xe6Mvu9n9nSWx+Pba2HP89liUrYuq6qipVgcZB+ofE0n9YyKpf28rlQ+3V++LV3Y3ZutgslFPmRy676iPuVuujn2v7Ak1kYtN/WMiqX9MJPXvrc2YWwAAAHJPuAUAACD3hFsAAAByr/Lh9v7lw2Ygq4/m57JtMFmopwAA8JZS+XD7kaZova91UNkRjTXZNpgs1FMAAHhLqXy4ndUQyz61bFBpiNpLs20wWainAADwlmLMLQAAALkn3AIAAJB7wi0AAAC5J9wCAACQe5cUEtkyAAAA5JKWWwAAAHJPuAUAACD3hFsAAAByT7gFAAAg94RbAAAAck+4BQAAIPeEWwAAAHJPuAUAACD3hFsAAAByT7gFAAAg94RbAAAAck+4BQAAIPeEWwAAAHJPuAUAACD3hFsAAAByT7gFAAAg94RbAAAAck+4BQAAIPeEWwAAAHJPuAUAACD3hFsAAAByT7gFAAAg94RbAAAAck+4BQAAIPeEWwAAAHJPuAUAACD3hFsAAAByT7gFAAAg94RbAAAAck+4BQAAIPeEWwAAAHJPuAUAACD3hFsAAAByT7gFAAAg94RbAAAAck+4BQAAIPeEWwAAAHJPuAUAACD3hFsAAAByT7gFAAAg94RbAAAAck+4BQAAIPeEWwAAAHJPuAUAACD3hFsAAAByT7gFAAAg5yL+f4vzA55plHbSAAAAAElFTkSuQmCC;" vertex="1" parent="1">
          <mxGeometry x="286" y="385" width="571" height="199.94" as="geometry" />
        </mxCell>
      </root>
    </mxGraphModel>
  </diagram>
</mxfile>
